<?xml version="1.0" standalone="no"?><!DOCTYPE svg PUBLIC "-//W3C//DTD SVG 1.1//EN" "http://www.w3.org/Graphics/SVG/1.1/DTD/svg11.dtd"><svg t="1591969693875" class="icon" viewBox="0 0 1024 1024" version="1.1" xmlns="http://www.w3.org/2000/svg" p-id="2529" xmlns:xlink="http://www.w3.org/1999/xlink" width="200" height="200"><defs><style type="text/css"></style></defs><path d="M317.9 434.2v2.7l17.1 4c0-104.6 84.5-189.3 188.6-189.3v-17.2c-111.4-0.1-202.1 88.7-205.7 199.8z m454.3 6.6c-2.9 0-5.8 0.1-8.7 0.2 0.1-2.9 0.1-5.9 0.1-8.8 0-137.8-111.3-249.5-248.6-249.5-125.8 0-229.7 93.7-246.3 215.4-96.9 5.4-173.8 86.1-173.8 184.7 0 100.7 80.2 182.6 180 184.9v0.1c254.2 0.2 234.4-198.3 234.4-198.3l-34.5-1.1c12.2 170.8-194.1 165-195.5 165-82.9 0-150-67.4-150-150.6 0-83.2 67.2-150.6 150-150.6 7.3 0 14.4 0.5 21.4 1.5l0.1-1.5 0.7-19.6h0.2C311.4 303 403.2 217.1 515 217.1c118.4 0 214.3 96.3 214.3 215.1 0 17.6-2.1 34.7-6.1 51l6.1-1.4v0.7c3.3-1.2 6.7-2.2 10.2-3.1l6.4-1.5c8.5-1.8 17.3-2.7 26.3-2.7 71 0 128.6 57.8 128.6 129.1 0 68.4-53 124.4-120.1 128.8l0.1 0.3H536.4l0.1 34.4h244.4v-0.2c86-4.5 154.3-75.9 154.3-163.3-0.1-90.3-73-163.5-163-163.5z" fill="#1296db" p-id="2530"></path><path d="M495.7 517.4l-95.4 74.3 23.4 28.2 70.1-50 62.5 52.2 28.7-26.7z" fill="#1296db" p-id="2531"></path></svg>